<mxfile host="app.diagrams.net" modified="2022-11-01T21:12:09.572Z" agent="5.0 (Windows)" etag="d-wTlZtZq39HZ81qzZ6w" version="20.5.1" type="github">
  <diagram id="OLpPf9kgjylI3nT39nVS" name="Seite-1">
    <mxGraphModel dx="1896" dy="568" grid="1" gridSize="10" guides="1" tooltips="1" connect="1" arrows="1" fold="1" page="1" pageScale="1" pageWidth="827" pageHeight="1169" math="0" shadow="0">
      <root>
        <mxCell id="0" />
        <mxCell id="1" parent="0" />
        <mxCell id="x6j9fs0ybIFFoZgIIaTc-1" value="" style="ellipse;whiteSpace=wrap;html=1;aspect=fixed;" vertex="1" parent="1">
          <mxGeometry x="220" y="170" width="80" height="80" as="geometry" />
        </mxCell>
        <mxCell id="x6j9fs0ybIFFoZgIIaTc-2" value="" style="ellipse;whiteSpace=wrap;html=1;aspect=fixed;" vertex="1" parent="1">
          <mxGeometry x="220" y="430" width="80" height="80" as="geometry" />
        </mxCell>
        <mxCell id="x6j9fs0ybIFFoZgIIaTc-3" value="" style="ellipse;whiteSpace=wrap;html=1;aspect=fixed;" vertex="1" parent="1">
          <mxGeometry x="380" y="300" width="80" height="80" as="geometry" />
        </mxCell>
        <mxCell id="x6j9fs0ybIFFoZgIIaTc-4" value="" style="endArrow=classic;html=1;rounded=0;" edge="1" parent="1">
          <mxGeometry width="50" height="50" relative="1" as="geometry">
            <mxPoint x="70" y="210" as="sourcePoint" />
            <mxPoint x="220" y="210" as="targetPoint" />
          </mxGeometry>
        </mxCell>
        <mxCell id="x6j9fs0ybIFFoZgIIaTc-5" value="" style="endArrow=classic;html=1;rounded=0;" edge="1" parent="1">
          <mxGeometry width="50" height="50" relative="1" as="geometry">
            <mxPoint x="70" y="469.5" as="sourcePoint" />
            <mxPoint x="220" y="469.5" as="targetPoint" />
            <Array as="points">
              <mxPoint x="140" y="469.5" />
            </Array>
          </mxGeometry>
        </mxCell>
        <mxCell id="x6j9fs0ybIFFoZgIIaTc-6" value="" style="endArrow=classic;html=1;rounded=0;entryX=0;entryY=0;entryDx=0;entryDy=0;" edge="1" parent="1" target="x6j9fs0ybIFFoZgIIaTc-2">
          <mxGeometry width="50" height="50" relative="1" as="geometry">
            <mxPoint x="70" y="210" as="sourcePoint" />
            <mxPoint x="220" y="260" as="targetPoint" />
          </mxGeometry>
        </mxCell>
        <mxCell id="x6j9fs0ybIFFoZgIIaTc-8" value="" style="endArrow=classic;html=1;rounded=0;entryX=0;entryY=1;entryDx=0;entryDy=0;" edge="1" parent="1" target="x6j9fs0ybIFFoZgIIaTc-1">
          <mxGeometry width="50" height="50" relative="1" as="geometry">
            <mxPoint x="70" y="470" as="sourcePoint" />
            <mxPoint x="220" y="440" as="targetPoint" />
          </mxGeometry>
        </mxCell>
        <mxCell id="x6j9fs0ybIFFoZgIIaTc-9" value="" style="endArrow=classic;html=1;rounded=0;exitX=1;exitY=1;exitDx=0;exitDy=0;entryX=0;entryY=0;entryDx=0;entryDy=0;" edge="1" parent="1" source="x6j9fs0ybIFFoZgIIaTc-1" target="x6j9fs0ybIFFoZgIIaTc-3">
          <mxGeometry width="50" height="50" relative="1" as="geometry">
            <mxPoint x="310" y="240" as="sourcePoint" />
            <mxPoint x="460" y="240" as="targetPoint" />
          </mxGeometry>
        </mxCell>
        <mxCell id="x6j9fs0ybIFFoZgIIaTc-10" value="" style="endArrow=classic;html=1;rounded=0;exitX=0.938;exitY=0.25;exitDx=0;exitDy=0;exitPerimeter=0;entryX=0;entryY=1;entryDx=0;entryDy=0;" edge="1" parent="1" source="x6j9fs0ybIFFoZgIIaTc-2" target="x6j9fs0ybIFFoZgIIaTc-3">
          <mxGeometry width="50" height="50" relative="1" as="geometry">
            <mxPoint x="320" y="450" as="sourcePoint" />
            <mxPoint x="470" y="450" as="targetPoint" />
          </mxGeometry>
        </mxCell>
        <mxCell id="x6j9fs0ybIFFoZgIIaTc-11" value="" style="endArrow=classic;html=1;rounded=0;" edge="1" parent="1">
          <mxGeometry width="50" height="50" relative="1" as="geometry">
            <mxPoint x="460" y="339.5" as="sourcePoint" />
            <mxPoint x="536" y="340" as="targetPoint" />
          </mxGeometry>
        </mxCell>
        <mxCell id="x6j9fs0ybIFFoZgIIaTc-12" value="&lt;font style=&quot;font-size: 18px;&quot;&gt;!AND&lt;/font&gt;" style="text;html=1;strokeColor=none;fillColor=none;align=center;verticalAlign=middle;whiteSpace=wrap;rounded=0;" vertex="1" parent="1">
          <mxGeometry x="230" y="195" width="60" height="30" as="geometry" />
        </mxCell>
        <mxCell id="x6j9fs0ybIFFoZgIIaTc-13" value="&lt;font style=&quot;font-size: 18px;&quot;&gt;OR&lt;/font&gt;" style="text;html=1;strokeColor=none;fillColor=none;align=center;verticalAlign=middle;whiteSpace=wrap;rounded=0;" vertex="1" parent="1">
          <mxGeometry x="230" y="455" width="60" height="30" as="geometry" />
        </mxCell>
        <mxCell id="x6j9fs0ybIFFoZgIIaTc-14" value="&lt;font style=&quot;font-size: 18px;&quot;&gt;AND&lt;/font&gt;" style="text;html=1;strokeColor=none;fillColor=none;align=center;verticalAlign=middle;whiteSpace=wrap;rounded=0;" vertex="1" parent="1">
          <mxGeometry x="390" y="325" width="60" height="30" as="geometry" />
        </mxCell>
        <mxCell id="x6j9fs0ybIFFoZgIIaTc-15" value="output" style="text;html=1;strokeColor=none;fillColor=none;align=center;verticalAlign=middle;whiteSpace=wrap;rounded=0;fontSize=18;" vertex="1" parent="1">
          <mxGeometry x="550" y="325" width="60" height="30" as="geometry" />
        </mxCell>
        <mxCell id="x6j9fs0ybIFFoZgIIaTc-16" value="A (T or F)" style="text;html=1;strokeColor=none;fillColor=none;align=center;verticalAlign=middle;whiteSpace=wrap;rounded=0;fontSize=18;" vertex="1" parent="1">
          <mxGeometry x="-20" y="195" width="80" height="30" as="geometry" />
        </mxCell>
        <mxCell id="x6j9fs0ybIFFoZgIIaTc-17" value="B (T or F)" style="text;html=1;strokeColor=none;fillColor=none;align=center;verticalAlign=middle;whiteSpace=wrap;rounded=0;fontSize=18;" vertex="1" parent="1">
          <mxGeometry x="-20" y="455" width="80" height="30" as="geometry" />
        </mxCell>
      </root>
    </mxGraphModel>
  </diagram>
</mxfile>
